HIERARCHY
ROOT Hips
{
	OFFSET 0.00000 0.00000 0.00000
	CHANNELS 6 Xposition Yposition Zposition Zrotation Yrotation Xrotation 
	JOINT LHipJoint
	{
		OFFSET 0 0 0
		CHANNELS 3 Zrotation Yrotation Xrotation
		JOINT LeftHip
		{
			OFFSET 1.86795 -1.59681 0.65681
			CHANNELS 3 Zrotation Yrotation Xrotation
			JOINT LeftKnee
			{
				OFFSET 2.30491 -6.33268 0.00000
				CHANNELS 3 Zrotation Yrotation Xrotation
				JOINT LeftAnkle
				{
					OFFSET 2.46780 -6.78022 0.00000
					CHANNELS 3 Zrotation Yrotation Xrotation
					JOINT LeftToe
					{
						OFFSET 0.07897 -0.21698 1.59652
						CHANNELS 3 Zrotation Yrotation Xrotation
						End Site
						{
							OFFSET 0.00000 -0.00000 0.82310
						}
					}
				}
			}
		}
	}
	JOINT RHipJoint
	{
		OFFSET 0 0 0
		CHANNELS 3 Zrotation Yrotation Xrotation
		JOINT RightHip
		{
			OFFSET -1.93650 -1.59681 0.65681
			CHANNELS 3 Zrotation Yrotation Xrotation
			JOINT RightKnee
			{
				OFFSET -2.29410 -6.30299 0.00000
				CHANNELS 3 Zrotation Yrotation Xrotation
				JOINT RightAnkle
				{
					OFFSET -2.48738 -6.83403 0.00000
					CHANNELS 3 Zrotation Yrotation Xrotation
					JOINT RightToe
					{
						OFFSET -0.08699 -0.23899 1.89395
						CHANNELS 3 Zrotation Yrotation Xrotation
						End Site
						{
							OFFSET -0.00000 -0.00000 0.96904
						}
					}
				}
			}
		}
	}
	JOINT lowerback
	{
		OFFSET 0 0 0
		CHANNELS 3 Zrotation Yrotation Xrotation
		JOINT Chest
		{
			OFFSET 0.03629 1.99740 -0.07548
			CHANNELS 3 Zrotation Yrotation Xrotation
			JOINT Chest2
			{
				OFFSET 0.03970 1.94298 0.17218
				CHANNELS 3 Zrotation Yrotation Xrotation
				JOINT lowerneck
				{
					OFFSET 0 0 0
					CHANNELS 3 Zrotation Yrotation Xrotation
					JOINT Neck
					{
						OFFSET -0.05054 1.79469 0.04241
						CHANNELS 3 Zrotation Yrotation Xrotation
						JOINT Head
						{
							OFFSET 0.05195 1.78475 -0.22133
							CHANNELS 3 Zrotation Yrotation Xrotation
							End Site
							{
								OFFSET 0.02420 1.80711 -0.07950
							}
						}
					}
				}
				JOINT LeftCollar
				{
					OFFSET 0 0 0
					CHANNELS 3 Zrotation Yrotation Xrotation
					JOINT LeftShoulder
					{
						OFFSET 2.92134 1.19850 0.36056
CHANNELS 3 Zrotation Xrotation Yrotation
						JOINT LeftElbow
						{
OFFSET 0 -4.841370 0.000000
CHANNELS 3 Zrotation Xrotation Yrotation
							JOINT LeftWrist
							{
OFFSET 0 -3.245200 -0.000000
CHANNELS 3 Zrotation Xrotation Yrotation
								JOINT lhand
								{
									OFFSET 0 0 0
CHANNELS 3 Zrotation Xrotation Yrotation
									JOINT LFingers
									{
OFFSET 0 -0.521220 0.000000
CHANNELS 3 Zrotation Xrotation Yrotation
										End Site
										{
OFFSET 0 -0.420220 0.000000
										}
									}
								}
								JOINT LThumb
								{
OFFSET 0 0.000000 0.000000
CHANNELS 3 Zrotation Xrotation Yrotation
									End Site
									{
OFFSET 0 -0.426640 0.426640
									}
								}
							}
						}
					}
				}
				JOINT RightCollar
				{
					OFFSET 0 0 0
					CHANNELS 3 Zrotation Yrotation Xrotation
					JOINT RightShoulder
					{
						OFFSET -2.84327 1.20795 0.50191
CHANNELS 3 Zrotation Xrotation Yrotation
						JOINT RightElbow
						{
OFFSET 0 -4.722840 0.000000
CHANNELS 3 Zrotation Xrotation Yrotation
							JOINT RightWrist
							{
OFFSET 0 -3.234590 0.000000
CHANNELS 3 Zrotation Xrotation Yrotation
								JOINT rhand
								{
									OFFSET 0 0 0
CHANNELS 3 Zrotation Xrotation Yrotation
									JOINT RFingers
									{
OFFSET 0 -0.307420 0.000000
CHANNELS 3 Zrotation Xrotation Yrotation
										End Site
										{
OFFSET 0 -0.247850 0.000000
										}
									}
								}
								JOINT RThumb
								{
OFFSET 0 0.000000 0.000000
CHANNELS 3 Zrotation Xrotation Yrotation
									End Site
									{
OFFSET 0 -0.251630 0.251630
									}
								}
							}
						}
					}
				}
			}
		}
	}
}
MOTION
Frames: 6
Frame Time: 0.008333333333333333
1.811992 17.949832 1.909490 -1.075842 -8.438335 -709.457830 0.000000 0.000000 0.000000 -25.840665 -18.892630 2.046237 1.035994 6.473734 18.165413 3.179614 14.640664 32.378794 1.837321 8.518671 24.300957 0.000000 0.000000 0.000000 20.976378 31.806044 -15.477435 -2.257212 -9.382441 26.999120 -1.722496 -8.309581 23.514368 -0.522802 4.633025 -12.864997 2.611196 -2.959433 -9.464596 7.677552 -3.768130 -12.523244 6.662074 -1.754720 -7.676534 0.664661 8.457577 2.648490 -3.166291 11.012554 -13.419012 -1.701825 5.500770 -4.697085 0.000000 0.000000 0.000000 77.258865 0.747936 16.393153 32.637852 -43.049849 13.174172 -48.380320 7.797548 -20.620788 0.000000 0.000000 0.000000 -7.125000 0.000000 0.000000 -57.845113 40.308099 -11.894755 0.000000 0.000000 0.000000 -89.217330 10.205325 -42.165246 -16.650853 -26.395104 -3.930837 -19.425593 -28.281440 -19.133297 0.000000 0.000000 0.000000 7.125000 0.000000 0.000000 5.709811 9.862305 4.671398
1.839144 17.998560 1.921018 -0.905430 -7.780556 -708.626409 0.000000 0.000000 0.000000 -25.317033 -19.822617 1.544298 0.960267 6.239311 17.480517 3.319077 15.489488 33.158702 2.229670 9.328879 26.829625 0.000000 0.000000 0.000000 20.444161 32.398984 -16.829651 -2.345449 -9.551357 27.535705 -1.766093 -11.785636 24.017047 -0.012661 0.649930 -1.786445 1.776281 -3.105267 -9.142930 7.816639 -3.878657 -13.014342 7.353250 -1.712842 -8.345123 1.017312 8.878603 2.469199 -4.205439 11.418758 -16.555129 -2.013141 5.727655 -5.077799 0.000000 0.000000 0.000000 77.615292 0.697417 18.357302 33.183750 -43.470785 13.548322 -47.395846 8.467762 -20.670191 0.000000 0.000000 0.000000 -7.125000 0.000000 0.000000 -57.805284 40.640789 -10.919946 0.000000 0.000000 0.000000 -87.483804 10.982242 -41.951001 -16.179863 -25.763753 -3.723830 -21.064511 -30.166527 -18.015157 0.000000 0.000000 0.000000 7.125000 0.000000 0.000000 4.568898 10.814087 3.642406
1.850266 18.015097 1.947024 -0.989909 -6.671213 -707.906389 0.000000 0.000000 0.000000 -24.391225 -21.182957 0.828105 0.939024 6.171868 17.284037 3.126788 18.006102 32.546192 2.873246 10.475377 30.541918 0.000000 0.000000 0.000000 20.800743 32.069896 -17.705554 -2.374279 -9.605732 27.709074 -1.916370 -11.684610 24.976373 -0.042081 1.323027 -3.638087 1.525555 -3.141277 -8.745677 7.484387 -3.883769 -13.444473 7.200254 -1.685490 -9.066656 0.643858 9.152500 0.425018 -3.257359 11.864416 -16.508081 -1.582413 5.896679 -4.798797 0.000000 0.000000 0.000000 78.092060 0.137254 20.200591 34.106811 -44.163616 14.187409 -43.420955 9.939568 -21.421713 0.000000 0.000000 0.000000 -7.125000 0.000000 0.000000 -57.749936 42.295041 -6.462653 0.000000 0.000000 0.000000 -86.081846 12.702336 -39.739636 -14.960020 -24.090139 -3.209756 -24.563555 -32.631646 -14.949702 0.000000 0.000000 0.000000 7.125000 0.000000 0.000000 2.026809 13.626230 1.493250
1.833127 18.020298 1.974275 -0.271541 -5.545268 -706.933688 0.000000 0.000000 0.000000 -24.138636 -22.821077 0.014627 0.922109 6.117609 17.126047 3.322618 18.458259 33.570471 3.321012 11.196630 32.946777 0.000000 0.000000 0.000000 20.117882 32.224931 -18.869711 -2.437756 -9.723713 28.086651 -2.032755 -10.426605 25.625626 -0.223334 3.037639 -8.383789 0.189007 -3.385499 -8.936667 6.884478 -4.203685 -13.691531 7.288960 -1.748794 -9.145928 0.456810 9.428932 -0.435126 -2.613022 12.302100 -17.539059 -1.369603 6.068791 -5.025212 0.000000 0.000000 0.000000 78.775046 -0.247910 21.956106 35.389366 -45.087974 15.088495 -34.327947 14.524904 -21.798920 0.000000 0.000000 0.000000 -7.125000 0.000000 0.000000 -54.208006 44.355749 -1.297743 0.000000 0.000000 0.000000 -85.173336 13.831898 -37.525225 -13.612264 -22.177698 -2.680007 -25.942969 -33.269551 -12.001943 0.000000 0.000000 0.000000 7.125000 0.000000 0.000000 0.877295 16.679472 0.588753
1.815978 18.021580 1.972015 -0.554382 -4.841449 -705.805970 0.000000 0.000000 0.000000 -23.038141 -23.944950 -1.078558 0.889744 6.012189 16.819926 3.518607 19.852763 34.733946 4.575582 12.886717 38.950182 0.000000 0.000000 0.000000 19.867387 32.985678 -20.371268 -2.478668 -9.799056 28.328467 -2.060603 -14.602510 26.251090 -0.015473 -0.800950 2.201341 -0.079930 -3.213461 -8.670578 6.269982 -3.981604 -13.889190 6.807409 -1.629805 -9.572037 0.143828 9.635855 -0.846544 -2.043342 12.657613 -19.111368 -1.200945 6.206899 -5.505741 0.000000 0.000000 0.000000 78.818593 -0.545207 23.353581 37.569491 -46.561862 16.652408 -25.585198 15.936479 -24.095060 0.000000 0.000000 0.000000 -7.125000 0.000000 0.000000 -50.523966 47.498249 4.156058 0.000000 0.000000 0.000000 -84.248812 15.444610 -33.849981 -13.068045 -21.386757 -2.478066 -26.449633 -34.906627 -11.418316 0.000000 0.000000 0.000000 7.125000 0.000000 0.000000 0.485257 17.267897 0.319127
1.761752 18.044251 1.976847 -1.049776 -3.863965 -705.295397 0.000000 0.000000 0.000000 -21.770492 -24.981106 -2.443564 1.070063 6.576115 18.465392 3.168451 18.730022 32.867645 3.074672 10.723950 31.454007 0.000000 0.000000 0.000000 20.754135 32.720632 -20.645545 -2.350697 -9.561222 27.567154 -2.598126 -10.122180 29.033704 -0.347770 3.715213 -10.284559 -0.668734 -3.248799 -7.779468 5.682624 -4.034391 -13.857770 6.555780 -1.615132 -10.038512 0.102326 9.749880 -0.980456 -1.378935 12.938066 -20.075383 -1.035252 6.292408 -5.836907 0.000000 0.000000 0.000000 79.441015 -0.782098 24.150572 39.041546 -47.491595 17.729398 -20.541104 17.885642 -24.382373 0.000000 0.000000 0.000000 -7.125000 0.000000 0.000000 -47.020237 48.515567 5.152410 0.000000 0.000000 0.000000 -83.826555 16.340912 -29.676407 -12.954911 -21.221085 -2.436908 -25.350709 -36.947038 -11.392974 0.000000 0.000000 0.000000 7.125000 0.000000 0.000000 1.251016 17.411496 0.819622
